# xmcd CD database file
#
# Track frame offsets:
#	150
#	42868
#	112384
#	136654
#	159813
#	185041
#	213680
#	244614
#
# Disc length: 3616 seconds
#
# Revision: 3
# Processed by: cddbd v1.5.2PL0 Copyright (c) Steve Scherf et al.
# Submitted via: CDex 1.51
#
DISCID=6e0e1e08
DTITLE=John Coltrane - Blue Train  [CD 02-10] 
DYEAR=1957
DGENRE=Jazz
TTITLE0=Just You, Just Me
TTITLE1=How Deep Is The Ocean ¿
TTITLE2=Soultrane
TTITLE3=Gnid
TTITLE4=Mating Call
TTITLE5=On A Misty Night
TTITLE6=Romas
TTITLE7=Super Jet
EXTD=YEAR: 1957
EXTT0=
EXTT1=
EXTT2=
EXTT3=
EXTT4=
EXTT5=
EXTT6=
EXTT7=
PLAYORDER=
